<svg width="1920" height="1080" viewBox="0 0 1920 1080" xmlns="http://www.w3.org/2000/svg"><rect width="1920" height="1080" fill="#5681ef"/><path d="M 0,1080 C 0,1080 0,180 0,180 C 99.41025641025641,160.33333333333334 198.82051282051282,140.66666666666669 311,160 C 423.1794871794872,179.33333333333331 548.1282051282051,237.66666666666666 644,243 C 739.8717948717949,248.33333333333334 806.6666666666669,200.66666666666666 901,189 C 995.3333333333331,177.33333333333334 1117.2051282051282,201.6666666666667 1245,212 C 1372.7948717948718,222.3333333333333 1506.5128205128203,218.66666666666663 1620,211 C 1733.4871794871797,203.33333333333337 1826.7435897435898,191.66666666666669 1920,180 C 1920,180 1920,1080 1920,1080 Z" fill="#3d1053" opacity="0.09999999999999999"/><path d="M 0,1080 C 0,1080 0,360 0,360 C 134.32307692307694,345.74102564102566 268.6461538461539,331.48205128205126 375,334 C 481.3538461538461,336.51794871794874 559.7384615384615,355.8128205128205 665,363 C 770.2615384615385,370.1871794871795 902.4000000000003,365.26666666666665 1004,375 C 1105.5999999999997,384.73333333333335 1176.6615384615382,409.1205128205129 1274,409 C 1371.3384615384618,408.8794871794871 1494.9538461538464,384.25128205128203 1607,372 C 1719.0461538461536,359.74871794871797 1819.5230769230768,359.874358974359 1920,360 C 1920,360 1920,1080 1920,1080 Z" fill="#3d1053" opacity="0.19999999999999998"/><path d="M 0,1080 C 0,1080 0,540 0,540 C 90.10512820512821,519.4025641025642 180.21025641025642,498.8051282051282 291,486 C 401.7897435897436,473.1948717948718 533.2641025641026,468.1820512820513 646,480 C 758.7358974358974,491.8179487179487 852.7333333333331,520.4666666666668 959,527 C 1065.2666666666669,533.5333333333332 1183.802564102564,517.951282051282 1280,505 C 1376.197435897436,492.04871794871804 1450.0564102564103,481.72820512820516 1553,488 C 1655.9435897435897,494.27179487179484 1787.9717948717948,517.1358974358974 1920,540 C 1920,540 1920,1080 1920,1080 Z" fill="#3d1053" opacity="0.3"/><path d="M 0,1080 C 0,1080 0,720 0,720 C 116.45384615384617,757.1948717948718 232.90769230769234,794.3897435897436 339,783 C 445.09230769230766,771.6102564102564 540.8230769230769,711.6358974358975 631,688 C 721.1769230769231,664.3641025641025 805.8000000000002,677.0666666666666 931,702 C 1056.1999999999998,726.9333333333334 1221.976923076923,764.097435897436 1322,750 C 1422.023076923077,735.902564102564 1456.2923076923075,670.5435897435898 1545,657 C 1633.7076923076925,643.4564102564102 1776.8538461538462,681.7282051282051 1920,720 C 1920,720 1920,1080 1920,1080 Z" fill="#3d1053" opacity="0.39999999999999997"/><path d="M 0,1080 C 0,1080 0,900 0,900 C 80.88205128205126,882.148717948718 161.76410256410253,864.2974358974359 268,881 C 374.23589743589747,897.7025641025641 505.82564102564106,948.9589743589744 612,963 C 718.1743589743589,977.0410256410256 798.9333333333334,953.8666666666666 903,937 C 1007.0666666666666,920.1333333333334 1134.4410256410256,909.5743589743591 1263,910 C 1391.5589743589744,910.4256410256409 1521.3025641025642,921.8358974358973 1631,922 C 1740.6974358974358,922.1641025641027 1830.3487179487179,911.0820512820513 1920,900 C 1920,900 1920,1080 1920,1080 Z" fill="#3d1053" opacity="0.49999999999999994"/></svg>